<?xml version="1.0" encoding="UTF-8" standalone="no"?>
<!DOCTYPE svg PUBLIC "-//W3C//DTD SVG 1.1//EN"
 "http://www.w3.org/Graphics/SVG/1.1/DTD/svg11.dtd">
<!-- Generated by graphviz version 2.43.0 (0)
 -->
<!-- Title: G Pages: 1 -->
<svg width="676pt" height="1090pt"
 viewBox="0.00 0.00 675.74 1089.98" xmlns="http://www.w3.org/2000/svg" xmlns:xlink="http://www.w3.org/1999/xlink">
<g id="graph0" class="graph" transform="scale(1 1) rotate(0) translate(4 1085.98)">
<title>G</title><style>.edge>path:hover{stroke-width:8}</style>
<polygon fill="white" stroke="transparent" points="-4,4 -4,-1085.98 671.74,-1085.98 671.74,4 -4,4"/>
<!-- hexaflow -->
<g id="node1" class="node">
<title>hexaflow</title><style>.edge>path:hover{stroke-width:8}</style>
<polygon fill="blue" stroke="black" points="61,-770 58,-774 37,-774 34,-770 0,-770 0,-734 61,-734 61,-770"/>
<text text-anchor="middle" x="30.5" y="-749.5" font-family="Helvetica,sans-Serif" font-size="10.00" fill="white">hexaflow</text>
</g>
<!-- hexaqueue_workflow_adapters_engines_distributed -->
<g id="node7" class="node">
<title>hexaqueue_workflow_adapters_engines_distributed</title><style>.edge>path:hover{stroke-width:8}</style>
<polygon fill="blue" stroke="black" points="399.5,-273 277.5,-273 277.5,-221 399.5,-221 399.5,-273"/>
<text text-anchor="middle" x="338.5" y="-261" font-family="Helvetica,sans-Serif" font-size="10.00" fill="white">hexaqueue_workflow.</text>
<text text-anchor="middle" x="338.5" y="-250" font-family="Helvetica,sans-Serif" font-size="10.00" fill="white">adapters.</text>
<text text-anchor="middle" x="338.5" y="-239" font-family="Helvetica,sans-Serif" font-size="10.00" fill="white">engines.</text>
<text text-anchor="middle" x="338.5" y="-228" font-family="Helvetica,sans-Serif" font-size="10.00" fill="white">distributed</text>
</g>
<!-- hexaflow&#45;&gt;hexaqueue_workflow_adapters_engines_distributed -->
<g id="edge1" class="edge">
<title>hexaflow&#45;&gt;hexaqueue_workflow_adapters_engines_distributed</title><style>.edge>path:hover{stroke-width:8}</style>
<path fill="none" stroke="black" d="M27.6,-733.97C25.07,-714.56 23.21,-682.25 33.5,-657 49.88,-616.8 68.66,-615.56 99.5,-585 163.21,-521.87 189.25,-516.44 249.5,-450"/>
<path fill="none" stroke="black" d="M249.5,-448C257.93,-436.88 258.73,-432.97 268.5,-423 296.29,-394.64 328.78,-406 338.5,-367.5"/>
<path fill="none" stroke="black" d="M338.5,-365.5C345.3,-338.57 344.87,-307.05 342.97,-283.44"/>
<polygon fill="blue" stroke="black" points="346.43,-282.83 342.02,-273.19 339.46,-283.48 346.43,-282.83"/>
</g>
<!-- hexaqueue_core -->
<g id="node2" class="node">
<title>hexaqueue_core</title><style>.edge>path:hover{stroke-width:8}</style>
<polygon fill="blue" stroke="black" points="178,-924.99 175,-928.99 154,-928.99 151,-924.99 81,-924.99 81,-888.99 178,-888.99 178,-924.99"/>
<text text-anchor="middle" x="129.5" y="-904.49" font-family="Helvetica,sans-Serif" font-size="10.00" fill="white">hexaqueue_core</text>
</g>
<!-- hexaqueue_server -->
<g id="node3" class="node">
<title>hexaqueue_server</title><style>.edge>path:hover{stroke-width:8}</style>
<polygon fill="blue" stroke="black" points="183,-695.5 180,-699.5 159,-699.5 156,-695.5 76,-695.5 76,-659.5 183,-659.5 183,-695.5"/>
<text text-anchor="middle" x="129.5" y="-675" font-family="Helvetica,sans-Serif" font-size="10.00" fill="white">hexaqueue_server</text>
</g>
<!-- hexaqueue_core&#45;&gt;hexaqueue_server -->
<g id="edge2" class="edge">
<title>hexaqueue_core&#45;&gt;hexaqueue_server</title><style>.edge>path:hover{stroke-width:8}</style>
<path fill="none" stroke="black" d="M129.5,-751C125.77,-736.48 125.51,-719.77 126.3,-706.05"/>
<polygon fill="blue" stroke="black" points="129.81,-706.04 127.11,-695.79 122.83,-705.49 129.81,-706.04"/>
</g>
<!-- hexaqueue_core&#45;&gt;hexaqueue_workflow_adapters_engines_distributed -->
<g id="edge3" class="edge">
<title>hexaqueue_core&#45;&gt;hexaqueue_workflow_adapters_engines_distributed</title><style>.edge>path:hover{stroke-width:8}</style>
<path fill="none" stroke="black" d="M132.26,-888.66C136.22,-859.93 141.8,-800.85 129.5,-753"/>
<path fill="none" stroke="black" d="M129.5,-751C118.45,-716.12 81.94,-731.17 66.5,-698 58.81,-681.48 58.57,-673.41 66.5,-657 89.09,-610.29 228,-559.22 249.5,-512"/>
<path fill="none" stroke="black" d="M249.5,-511C255.44,-484.55 233.13,-471.61 249.5,-450"/>
</g>
<!-- hexaqueue_server&#45;&gt;hexaqueue_workflow_adapters_engines_distributed -->
<g id="edge4" class="edge">
<title>hexaqueue_server&#45;&gt;hexaqueue_workflow_adapters_engines_distributed</title><style>.edge>path:hover{stroke-width:8}</style>
<path fill="none" stroke="black" d="M139.83,-659.34C152.04,-639.91 173.74,-607.98 197.5,-585 217.71,-565.46 257.62,-575.91 249.5,-549"/>
<path fill="none" stroke="black" d="M249.5,-548C244.74,-532.73 242.87,-526.56 249.5,-512"/>
</g>
<!-- hexaqueue_workflow -->
<g id="node4" class="node">
<title>hexaqueue_workflow</title><style>.edge>path:hover{stroke-width:8}</style>
<polygon fill="blue" stroke="black" points="487.5,-36 367.5,-36 367.5,0 487.5,0 487.5,-36"/>
<text text-anchor="middle" x="427.5" y="-15.5" font-family="Helvetica,sans-Serif" font-size="10.00" fill="white">hexaqueue_workflow</text>
</g>
<!-- hexaqueue_workflow_adapters -->
<g id="node5" class="node">
<title>hexaqueue_workflow_adapters</title><style>.edge>path:hover{stroke-width:8}</style>
<polygon fill="blue" stroke="black" points="488.5,-108 366.5,-108 366.5,-72 488.5,-72 488.5,-108"/>
<text text-anchor="middle" x="427.5" y="-93" font-family="Helvetica,sans-Serif" font-size="10.00" fill="white">hexaqueue_workflow.</text>
<text text-anchor="middle" x="427.5" y="-82" font-family="Helvetica,sans-Serif" font-size="10.00" fill="white">adapters</text>
</g>
<!-- hexaqueue_workflow_adapters&#45;&gt;hexaqueue_workflow -->
<g id="edge5" class="edge">
<title>hexaqueue_workflow_adapters&#45;&gt;hexaqueue_workflow</title><style>.edge>path:hover{stroke-width:8}</style>
<path fill="none" stroke="black" d="M427.5,-71.7C427.5,-63.98 427.5,-54.71 427.5,-46.11"/>
<polygon fill="blue" stroke="black" points="431,-46.1 427.5,-36.1 424,-46.1 431,-46.1"/>
</g>
<!-- hexaqueue_workflow_adapters_engines -->
<g id="node6" class="node">
<title>hexaqueue_workflow_adapters_engines</title><style>.edge>path:hover{stroke-width:8}</style>
<polygon fill="blue" stroke="black" points="399.5,-185 277.5,-185 277.5,-144 399.5,-144 399.5,-185"/>
<text text-anchor="middle" x="338.5" y="-173" font-family="Helvetica,sans-Serif" font-size="10.00" fill="white">hexaqueue_workflow.</text>
<text text-anchor="middle" x="338.5" y="-162" font-family="Helvetica,sans-Serif" font-size="10.00" fill="white">adapters.</text>
<text text-anchor="middle" x="338.5" y="-151" font-family="Helvetica,sans-Serif" font-size="10.00" fill="white">engines</text>
</g>
<!-- hexaqueue_workflow_adapters_engines&#45;&gt;hexaqueue_workflow -->
<g id="edge6" class="edge">
<title>hexaqueue_workflow_adapters_engines&#45;&gt;hexaqueue_workflow</title><style>.edge>path:hover{stroke-width:8}</style>
<path fill="none" stroke="black" d="M285.07,-143.94C261.94,-131.88 241.7,-114.24 249.5,-91"/>
</g>
<!-- hexaqueue_workflow_adapters_engines&#45;&gt;hexaqueue_workflow_adapters -->
<g id="edge7" class="edge">
<title>hexaqueue_workflow_adapters_engines&#45;&gt;hexaqueue_workflow_adapters</title><style>.edge>path:hover{stroke-width:8}</style>
<path fill="none" stroke="black" d="M362.82,-143.69C373.84,-134.72 386.95,-124.04 398.47,-114.65"/>
<polygon fill="blue" stroke="black" points="400.99,-117.11 406.54,-108.08 396.57,-111.68 400.99,-117.11"/>
</g>
<!-- hexaqueue_workflow_adapters_engines_distributed&#45;&gt;hexaqueue_workflow -->
<g id="edge8" class="edge">
<title>hexaqueue_workflow_adapters_engines_distributed&#45;&gt;hexaqueue_workflow</title><style>.edge>path:hover{stroke-width:8}</style>
<path fill="none" stroke="black" d="M292.33,-220.84C273.62,-207.41 255.09,-188.8 249.5,-165.5"/>
</g>
<!-- hexaqueue_workflow_adapters_engines_distributed&#45;&gt;hexaqueue_workflow_adapters -->
<g id="edge9" class="edge">
<title>hexaqueue_workflow_adapters_engines_distributed&#45;&gt;hexaqueue_workflow_adapters</title><style>.edge>path:hover{stroke-width:8}</style>
<path fill="none" stroke="black" d="M376.14,-220.88C388.19,-211.04 400.48,-198.8 408.5,-185 420.36,-164.6 424.91,-137.97 426.61,-118.27"/>
<polygon fill="blue" stroke="black" points="430.12,-118.33 427.29,-108.11 423.13,-117.86 430.12,-118.33"/>
</g>
<!-- hexaqueue_workflow_adapters_engines_distributed&#45;&gt;hexaqueue_workflow_adapters_engines -->
<g id="edge10" class="edge">
<title>hexaqueue_workflow_adapters_engines_distributed&#45;&gt;hexaqueue_workflow_adapters_engines</title><style>.edge>path:hover{stroke-width:8}</style>
<path fill="none" stroke="black" d="M338.5,-220.97C338.5,-212.86 338.5,-203.78 338.5,-195.35"/>
<polygon fill="blue" stroke="black" points="342,-195.15 338.5,-185.15 335,-195.15 342,-195.15"/>
</g>
<!-- hexaqueue_workflow_adapters_staging -->
<g id="node8" class="node">
<title>hexaqueue_workflow_adapters_staging</title><style>.edge>path:hover{stroke-width:8}</style>
<polygon fill="blue" stroke="black" points="488.5,-387 366.5,-387 366.5,-346 488.5,-346 488.5,-387"/>
<text text-anchor="middle" x="427.5" y="-375" font-family="Helvetica,sans-Serif" font-size="10.00" fill="white">hexaqueue_workflow.</text>
<text text-anchor="middle" x="427.5" y="-364" font-family="Helvetica,sans-Serif" font-size="10.00" fill="white">adapters.</text>
<text text-anchor="middle" x="427.5" y="-353" font-family="Helvetica,sans-Serif" font-size="10.00" fill="white">staging</text>
</g>
<!-- hexaqueue_workflow_adapters_staging&#45;&gt;hexaqueue_workflow -->
<g id="edge11" class="edge">
<title>hexaqueue_workflow_adapters_staging&#45;&gt;hexaqueue_workflow</title><style>.edge>path:hover{stroke-width:8}</style>
<path fill="none" stroke="black" d="M478.5,-163.5C477.14,-127.15 532.17,-123.83 516.5,-91"/>
<path fill="none" stroke="black" d="M516.5,-89C506.97,-69.03 488.61,-53.08 471.03,-41.49"/>
<polygon fill="blue" stroke="black" points="472.83,-38.49 462.5,-36.15 469.12,-44.42 472.83,-38.49"/>
</g>
<!-- hexaqueue_workflow_adapters_staging&#45;&gt;hexaqueue_workflow_adapters -->
<g id="edge12" class="edge">
<title>hexaqueue_workflow_adapters_staging&#45;&gt;hexaqueue_workflow_adapters</title><style>.edge>path:hover{stroke-width:8}</style>
<path fill="none" stroke="black" d="M478.5,-309C474.93,-245.32 481.27,-229.22 478.5,-165.5"/>
<path fill="none" stroke="black" d="M478.5,-163.5C477.82,-145.29 466.85,-128.41 455.27,-115.53"/>
<polygon fill="blue" stroke="black" points="457.52,-112.82 448.06,-108.05 452.48,-117.68 457.52,-112.82"/>
</g>
<!-- hexaqueue_workflow_adapters_staging&#45;&gt;hexaqueue_workflow_adapters_engines_distributed -->
<g id="edge13" class="edge">
<title>hexaqueue_workflow_adapters_staging&#45;&gt;hexaqueue_workflow_adapters_engines_distributed</title><style>.edge>path:hover{stroke-width:8}</style>
<path fill="none" stroke="black" d="M459.13,-345.96C470,-336.64 479.31,-324.37 478.5,-310"/>
<path fill="none" stroke="black" d="M478.5,-309C476.65,-275.99 443.39,-260.67 409.75,-253.63"/>
<polygon fill="blue" stroke="black" points="410.28,-250.17 399.81,-251.78 409,-257.05 410.28,-250.17"/>
</g>
<!-- hexaqueue_workflow_adapters_staging_storage -->
<g id="node9" class="node">
<title>hexaqueue_workflow_adapters_staging_storage</title><style>.edge>path:hover{stroke-width:8}</style>
<polygon fill="blue" stroke="black" points="399.5,-475 277.5,-475 277.5,-423 399.5,-423 399.5,-475"/>
<text text-anchor="middle" x="338.5" y="-463" font-family="Helvetica,sans-Serif" font-size="10.00" fill="white">hexaqueue_workflow.</text>
<text text-anchor="middle" x="338.5" y="-452" font-family="Helvetica,sans-Serif" font-size="10.00" fill="white">adapters.</text>
<text text-anchor="middle" x="338.5" y="-441" font-family="Helvetica,sans-Serif" font-size="10.00" fill="white">staging.</text>
<text text-anchor="middle" x="338.5" y="-430" font-family="Helvetica,sans-Serif" font-size="10.00" fill="white">storage</text>
</g>
<!-- hexaqueue_workflow_adapters_staging_storage&#45;&gt;hexaqueue_workflow -->
<g id="edge14" class="edge">
<title>hexaqueue_workflow_adapters_staging_storage&#45;&gt;hexaqueue_workflow</title><style>.edge>path:hover{stroke-width:8}</style>
<path fill="none" stroke="black" d="M516.5,-163.5C504.65,-133.54 530.38,-120.08 516.5,-91"/>
</g>
<!-- hexaqueue_workflow_adapters_staging_storage&#45;&gt;hexaqueue_workflow_adapters -->
<g id="edge15" class="edge">
<title>hexaqueue_workflow_adapters_staging_storage&#45;&gt;hexaqueue_workflow_adapters</title><style>.edge>path:hover{stroke-width:8}</style>
<path fill="none" stroke="black" d="M399.74,-440.45C434.06,-432.85 474.48,-417.6 497.5,-387 556.9,-308.05 542.78,-260.75 516.5,-165.5"/>
<path fill="none" stroke="black" d="M516.5,-163.5C508.12,-142.32 489.48,-125.6 471.42,-113.58"/>
<polygon fill="blue" stroke="black" points="472.97,-110.42 462.64,-108.06 469.24,-116.35 472.97,-110.42"/>
</g>
<!-- hexaqueue_workflow_adapters_staging_storage&#45;&gt;hexaqueue_workflow_adapters_engines_distributed -->
<g id="edge16" class="edge">
<title>hexaqueue_workflow_adapters_staging_storage&#45;&gt;hexaqueue_workflow_adapters_engines_distributed</title><style>.edge>path:hover{stroke-width:8}</style>
<path fill="none" stroke="black" d="M335.38,-422.95C334.13,-406.86 333.92,-385.66 338.5,-367.5"/>
</g>
<!-- hexaqueue_workflow_adapters_staging_storage&#45;&gt;hexaqueue_workflow_adapters_staging -->
<g id="edge17" class="edge">
<title>hexaqueue_workflow_adapters_staging_storage&#45;&gt;hexaqueue_workflow_adapters_staging</title><style>.edge>path:hover{stroke-width:8}</style>
<path fill="none" stroke="black" d="M366.17,-422.97C376.34,-413.78 387.88,-403.34 398.18,-394.02"/>
<polygon fill="blue" stroke="black" points="400.71,-396.45 405.78,-387.15 396.02,-391.26 400.71,-396.45"/>
</g>
<!-- hexaqueue_workflow_domain -->
<g id="node10" class="node">
<title>hexaqueue_workflow_domain</title><style>.edge>path:hover{stroke-width:8}</style>
<polygon fill="blue" stroke="black" points="561.5,-842 439.5,-842 439.5,-806 561.5,-806 561.5,-842"/>
<text text-anchor="middle" x="500.5" y="-827" font-family="Helvetica,sans-Serif" font-size="10.00" fill="white">hexaqueue_workflow.</text>
<text text-anchor="middle" x="500.5" y="-816" font-family="Helvetica,sans-Serif" font-size="10.00" fill="white">domain</text>
</g>
<!-- hexaqueue_workflow_domain&#45;&gt;hexaqueue_workflow -->
<g id="edge18" class="edge">
<title>hexaqueue_workflow_domain&#45;&gt;hexaqueue_workflow</title><style>.edge>path:hover{stroke-width:8}</style>
<path fill="none" stroke="black" d="M561.78,-815.17C597.96,-806.75 639.69,-789.27 655.5,-753"/>
<path fill="none" stroke="black" d="M655.5,-751C681.61,-691.11 655.5,-669.33 655.5,-604 655.5,-604 655.5,-604 655.5,-548 655.5,-504.44 649.27,-493.11 655.5,-450"/>
</g>
<!-- hexaqueue_workflow_domain&#45;&gt;hexaqueue_workflow_adapters_engines_distributed -->
<g id="edge19" class="edge">
<title>hexaqueue_workflow_domain&#45;&gt;hexaqueue_workflow_adapters_engines_distributed</title><style>.edge>path:hover{stroke-width:8}</style>
<path fill="none" stroke="black" d="M501.8,-805.94C502.27,-791.35 501.43,-770.06 494.5,-753"/>
<path fill="none" stroke="black" d="M494.5,-751C455.83,-655.82 338.5,-774.11 269.5,-698 224.62,-648.5 269.4,-612.78 249.5,-549"/>
</g>
<!-- hexaqueue_workflow_domain&#45;&gt;hexaqueue_workflow_adapters_staging_storage -->
<g id="edge20" class="edge">
<title>hexaqueue_workflow_domain&#45;&gt;hexaqueue_workflow_adapters_staging_storage</title><style>.edge>path:hover{stroke-width:8}</style>
<path fill="none" stroke="black" d="M494.5,-751C481.36,-716.49 542.78,-731.42 558.5,-698 576.57,-659.58 560.11,-642.16 541.5,-604"/>
</g>
<!-- hexaqueue_workflow_ports_staging -->
<g id="node14" class="node">
<title>hexaqueue_workflow_ports_staging</title><style>.edge>path:hover{stroke-width:8}</style>
<polygon fill="blue" stroke="black" points="549.5,-698 427.5,-698 427.5,-657 549.5,-657 549.5,-698"/>
<text text-anchor="middle" x="488.5" y="-686" font-family="Helvetica,sans-Serif" font-size="10.00" fill="white">hexaqueue_workflow.</text>
<text text-anchor="middle" x="488.5" y="-675" font-family="Helvetica,sans-Serif" font-size="10.00" fill="white">ports.</text>
<text text-anchor="middle" x="488.5" y="-664" font-family="Helvetica,sans-Serif" font-size="10.00" fill="white">staging</text>
</g>
<!-- hexaqueue_workflow_domain&#45;&gt;hexaqueue_workflow_ports_staging -->
<g id="edge21" class="edge">
<title>hexaqueue_workflow_domain&#45;&gt;hexaqueue_workflow_ports_staging</title><style>.edge>path:hover{stroke-width:8}</style>
<path fill="none" stroke="black" d="M494.5,-751C489.39,-737.59 487.64,-721.8 487.26,-708.39"/>
<polygon fill="blue" stroke="black" points="490.76,-708.21 487.22,-698.23 483.76,-708.24 490.76,-708.21"/>
</g>
<!-- hexaqueue_workflow_domain_exceptions -->
<g id="node11" class="node">
<title>hexaqueue_workflow_domain_exceptions</title><style>.edge>path:hover{stroke-width:8}</style>
<ellipse fill="#2fdbdb" stroke="black" cx="511.5" cy="-906.99" rx="86.03" ry="28.98"/>
<text text-anchor="middle" x="511.5" y="-915.49" font-family="Helvetica,sans-Serif" font-size="10.00" fill="#000000">hexaqueue_workflow.</text>
<text text-anchor="middle" x="511.5" y="-904.49" font-family="Helvetica,sans-Serif" font-size="10.00" fill="#000000">domain.</text>
<text text-anchor="middle" x="511.5" y="-893.49" font-family="Helvetica,sans-Serif" font-size="10.00" fill="#000000">exceptions</text>
</g>
<!-- hexaqueue_workflow_domain_exceptions&#45;&gt;hexaqueue_workflow -->
<g id="edge22" class="edge">
<title>hexaqueue_workflow_domain_exceptions&#45;&gt;hexaqueue_workflow</title><style>.edge>path:hover{stroke-width:8}</style>
<path fill="none" stroke="black" d="M655.5,-823C669.17,-795.05 641.56,-780.81 655.5,-753"/>
</g>
<!-- hexaqueue_workflow_domain_exceptions&#45;&gt;hexaqueue_workflow_adapters_staging_storage -->
<g id="edge23" class="edge">
<title>hexaqueue_workflow_domain_exceptions&#45;&gt;hexaqueue_workflow_adapters_staging_storage</title><style>.edge>path:hover{stroke-width:8}</style>
<path fill="none" stroke="black" d="M578.64,-888.75C609.52,-876.72 642.2,-856.9 655.5,-825"/>
<path fill="none" stroke="black" d="M655.5,-823C664.87,-800.51 647.7,-793.56 641.5,-770 630.8,-729.34 617.5,-720.54 617.5,-678.5 617.5,-678.5 617.5,-678.5 617.5,-548 617.5,-504.01 492.5,-475.01 409.84,-460.63"/>
<polygon fill="#2fdbdb" stroke="black" points="410.17,-457.14 399.73,-458.91 409,-464.04 410.17,-457.14"/>
</g>
<!-- hexaqueue_workflow_domain_exceptions&#45;&gt;hexaqueue_workflow_domain -->
<g id="edge24" class="edge">
<title>hexaqueue_workflow_domain_exceptions&#45;&gt;hexaqueue_workflow_domain</title><style>.edge>path:hover{stroke-width:8}</style>
<path fill="none" stroke="black" d="M507.65,-877.66C506.53,-869.42 505.31,-860.43 504.2,-852.25"/>
<polygon fill="#2fdbdb" stroke="black" points="507.64,-851.53 502.82,-842.1 500.7,-852.48 507.64,-851.53"/>
</g>
<!-- hexaqueue_workflow_domain_models -->
<g id="node12" class="node">
<title>hexaqueue_workflow_domain_models</title><style>.edge>path:hover{stroke-width:8}</style>
<ellipse fill="#0cf3f3" stroke="black" cx="320.5" cy="-906.99" rx="86.03" ry="28.98"/>
<text text-anchor="middle" x="320.5" y="-915.49" font-family="Helvetica,sans-Serif" font-size="10.00" fill="#000000">hexaqueue_workflow.</text>
<text text-anchor="middle" x="320.5" y="-904.49" font-family="Helvetica,sans-Serif" font-size="10.00" fill="#000000">domain.</text>
<text text-anchor="middle" x="320.5" y="-893.49" font-family="Helvetica,sans-Serif" font-size="10.00" fill="#000000">models</text>
</g>
<!-- hexaqueue_workflow_domain_models&#45;&gt;hexaqueue_workflow -->
<g id="edge25" class="edge">
<title>hexaqueue_workflow_domain_models&#45;&gt;hexaqueue_workflow</title><style>.edge>path:hover{stroke-width:8}</style>
<path fill="none" stroke="black" d="M348.15,-879.4C375.19,-850.08 410.78,-800.71 399.5,-753"/>
<path fill="none" stroke="black" d="M399.5,-751C389.13,-678.94 296.19,-749.27 244.5,-698 213.06,-666.82 204.11,-647.66 211.5,-604"/>
<path fill="none" stroke="black" d="M211.5,-602C216.29,-504.75 272.21,-260.18 249.5,-165.5"/>
<path fill="none" stroke="black" d="M249.5,-163.5C241.32,-132.33 239.24,-121.55 249.5,-91"/>
<path fill="none" stroke="black" d="M249.5,-89C263.97,-45.92 313.83,-28.9 357.11,-22.38"/>
<polygon fill="#0cf3f3" stroke="black" points="357.64,-25.84 367.08,-21.04 356.71,-18.9 357.64,-25.84"/>
</g>
<!-- hexaqueue_workflow_domain_models&#45;&gt;hexaqueue_workflow_adapters_engines_distributed -->
<g id="edge26" class="edge">
<title>hexaqueue_workflow_domain_models&#45;&gt;hexaqueue_workflow_adapters_engines_distributed</title><style>.edge>path:hover{stroke-width:8}</style>
<path fill="none" stroke="black" d="M211.5,-602C216.34,-573.42 258.22,-576.64 249.5,-549"/>
</g>
<!-- hexaqueue_workflow_domain_models&#45;&gt;hexaqueue_workflow_adapters_staging_storage -->
<g id="edge27" class="edge">
<title>hexaqueue_workflow_domain_models&#45;&gt;hexaqueue_workflow_adapters_staging_storage</title><style>.edge>path:hover{stroke-width:8}</style>
<path fill="none" stroke="black" d="M399.5,-751C395.66,-732.86 372.84,-600.83 382.5,-585 400.72,-555.14 443.61,-582.84 452.5,-549"/>
</g>
<!-- hexaqueue_workflow_domain_models&#45;&gt;hexaqueue_workflow_domain -->
<g id="edge28" class="edge">
<title>hexaqueue_workflow_domain_models&#45;&gt;hexaqueue_workflow_domain</title><style>.edge>path:hover{stroke-width:8}</style>
<path fill="none" stroke="black" d="M371.12,-883.22C396.84,-871.64 427.92,-857.66 453.16,-846.3"/>
<polygon fill="#0cf3f3" stroke="black" points="454.85,-849.38 462.53,-842.09 451.97,-843 454.85,-849.38"/>
</g>
<!-- hexaqueue_workflow_domain_models&#45;&gt;hexaqueue_workflow_ports_staging -->
<g id="edge29" class="edge">
<title>hexaqueue_workflow_domain_models&#45;&gt;hexaqueue_workflow_ports_staging</title><style>.edge>path:hover{stroke-width:8}</style>
<path fill="none" stroke="black" d="M399.5,-751C395.21,-730.73 409.09,-714.96 427.09,-703.39"/>
<polygon fill="#0cf3f3" stroke="black" points="429.34,-706.12 436.19,-698.04 425.79,-700.08 429.34,-706.12"/>
</g>
<!-- hexaqueue_workflow_ports -->
<g id="node13" class="node">
<title>hexaqueue_workflow_ports</title><style>.edge>path:hover{stroke-width:8}</style>
<polygon fill="blue" stroke="black" points="513.5,-621 391.5,-621 391.5,-585 513.5,-585 513.5,-621"/>
<text text-anchor="middle" x="452.5" y="-606" font-family="Helvetica,sans-Serif" font-size="10.00" fill="white">hexaqueue_workflow.</text>
<text text-anchor="middle" x="452.5" y="-595" font-family="Helvetica,sans-Serif" font-size="10.00" fill="white">ports</text>
</g>
<!-- hexaqueue_workflow_ports&#45;&gt;hexaqueue_workflow -->
<g id="edge30" class="edge">
<title>hexaqueue_workflow_ports&#45;&gt;hexaqueue_workflow</title><style>.edge>path:hover{stroke-width:8}</style>
<path fill="none" stroke="black" d="M513.5,-594.65C540.06,-587.77 567.78,-574.51 579.5,-549"/>
<path fill="none" stroke="black" d="M579.5,-548C602.52,-497.92 648.87,-504.72 655.5,-450"/>
<path fill="none" stroke="black" d="M655.5,-448C660.13,-277.79 589.84,-244.66 516.5,-91"/>
</g>
<!-- hexaqueue_workflow_ports&#45;&gt;hexaqueue_workflow_adapters_engines_distributed -->
<g id="edge31" class="edge">
<title>hexaqueue_workflow_ports&#45;&gt;hexaqueue_workflow_adapters_engines_distributed</title><style>.edge>path:hover{stroke-width:8}</style>
<path fill="none" stroke="black" d="M391.31,-591.4C333.02,-580.48 253.53,-563.12 249.5,-549"/>
</g>
<!-- hexaqueue_workflow_ports&#45;&gt;hexaqueue_workflow_adapters_staging_storage -->
<g id="edge32" class="edge">
<title>hexaqueue_workflow_ports&#45;&gt;hexaqueue_workflow_adapters_staging_storage</title><style>.edge>path:hover{stroke-width:8}</style>
<path fill="none" stroke="black" d="M449.78,-584.85C448.75,-574.25 448.63,-560.51 452.5,-549"/>
</g>
<!-- hexaqueue_workflow_ports_staging&#45;&gt;hexaqueue_workflow -->
<g id="edge33" class="edge">
<title>hexaqueue_workflow_ports_staging&#45;&gt;hexaqueue_workflow</title><style>.edge>path:hover{stroke-width:8}</style>
<path fill="none" stroke="black" d="M519.18,-656.82C531.92,-647.33 545.94,-634.96 555.5,-621 574.56,-593.17 556.19,-573.38 579.5,-549"/>
</g>
<!-- hexaqueue_workflow_ports_staging&#45;&gt;hexaqueue_workflow_adapters_engines_distributed -->
<g id="edge34" class="edge">
<title>hexaqueue_workflow_ports_staging&#45;&gt;hexaqueue_workflow_adapters_engines_distributed</title><style>.edge>path:hover{stroke-width:8}</style>
<path fill="none" stroke="black" d="M448.32,-656.94C381.02,-623.92 252.54,-559.67 249.5,-549"/>
</g>
<!-- hexaqueue_workflow_ports_staging&#45;&gt;hexaqueue_workflow_adapters_staging_storage -->
<g id="edge35" class="edge">
<title>hexaqueue_workflow_ports_staging&#45;&gt;hexaqueue_workflow_adapters_staging_storage</title><style>.edge>path:hover{stroke-width:8}</style>
<path fill="none" stroke="black" d="M517.91,-656.82C534.8,-642.89 550.93,-623.34 541.5,-604"/>
<path fill="none" stroke="black" d="M541.5,-602C521.31,-560.62 440.81,-593.53 452.5,-549"/>
</g>
<!-- hexaqueue_workflow_ports_staging&#45;&gt;hexaqueue_workflow_ports -->
<g id="edge36" class="edge">
<title>hexaqueue_workflow_ports_staging&#45;&gt;hexaqueue_workflow_ports</title><style>.edge>path:hover{stroke-width:8}</style>
<path fill="none" stroke="black" d="M478.66,-656.69C474.63,-648.56 469.9,-639.03 465.58,-630.33"/>
<polygon fill="blue" stroke="black" points="468.68,-628.72 461.1,-621.32 462.41,-631.83 468.68,-628.72"/>
</g>
<!-- hexastack_core -->
<g id="node15" class="node">
<title>hexastack_core</title><style>.edge>path:hover{stroke-width:8}</style>
<polygon fill="blue" stroke="black" points="371,-695.5 368,-699.5 347,-699.5 344,-695.5 278,-695.5 278,-659.5 371,-659.5 371,-695.5"/>
<text text-anchor="middle" x="324.5" y="-675" font-family="Helvetica,sans-Serif" font-size="10.00" fill="white">hexastack_core</text>
</g>
<!-- hexastack_core&#45;&gt;hexaqueue_workflow_adapters_engines_distributed -->
<g id="edge37" class="edge">
<title>hexastack_core&#45;&gt;hexaqueue_workflow_adapters_engines_distributed</title><style>.edge>path:hover{stroke-width:8}</style>
<path fill="none" stroke="black" d="M307.84,-659.33C296.18,-645.24 283.37,-624.36 287.5,-604"/>
<path fill="none" stroke="black" d="M287.5,-602C293.27,-573.59 257.45,-576.87 249.5,-549"/>
</g>
<!-- hexastack_core&#45;&gt;hexaqueue_workflow_adapters_staging_storage -->
<g id="edge38" class="edge">
<title>hexastack_core&#45;&gt;hexaqueue_workflow_adapters_staging_storage</title><style>.edge>path:hover{stroke-width:8}</style>
<path fill="none" stroke="black" d="M287.5,-602C302.82,-526.52 427.98,-622.02 452.5,-549"/>
<path fill="none" stroke="black" d="M452.5,-548C462.51,-518.18 437.83,-494.71 408.9,-478.23"/>
<polygon fill="blue" stroke="black" points="410.28,-475 399.81,-473.34 406.96,-481.16 410.28,-475"/>
</g>
<!-- pydantic -->
<g id="node16" class="node">
<title>pydantic</title><style>.edge>path:hover{stroke-width:8}</style>
<polygon fill="#f906f9" stroke="black" points="236,-1081.98 233,-1085.98 212,-1085.98 209,-1081.98 177,-1081.98 177,-1045.98 236,-1045.98 236,-1081.98"/>
<text text-anchor="middle" x="206.5" y="-1061.48" font-family="Helvetica,sans-Serif" font-size="10.00" fill="#ffffff">pydantic</text>
</g>
<!-- pydantic&#45;&gt;hexaflow -->
<g id="edge39" class="edge">
<title>pydantic&#45;&gt;hexaflow</title><style>.edge>path:hover{stroke-width:8}</style>
<path fill="none" stroke="black" d="M208.6,-1045.84C210.36,-1027.57 211.81,-997.89 206.5,-972.98"/>
<path fill="none" stroke="black" d="M206.5,-971.98C190.3,-912.04 114.52,-980.76 71.5,-935.98 30.7,-893.51 27.09,-819.68 28.48,-780.03"/>
<polygon fill="#f906f9" stroke="black" points="31.98,-780.19 28.97,-770.03 24.99,-779.85 31.98,-780.19"/>
</g>
<!-- pydantic&#45;&gt;hexaqueue_core -->
<g id="edge40" class="edge">
<title>pydantic&#45;&gt;hexaqueue_core</title><style>.edge>path:hover{stroke-width:8}</style>
<path fill="none" stroke="black" d="M206.5,-971.98C202.8,-954.65 189.83,-940.97 175.56,-930.78"/>
<polygon fill="#f906f9" stroke="black" points="177.35,-927.77 167.07,-925.19 173.5,-933.61 177.35,-927.77"/>
</g>
<!-- pydantic&#45;&gt;hexaqueue_server -->
<g id="edge41" class="edge">
<title>pydantic&#45;&gt;hexaqueue_server</title><style>.edge>path:hover{stroke-width:8}</style>
<path fill="none" stroke="black" d="M206.5,-971.98C195.63,-930.68 196.82,-919.44 186.5,-878 171.03,-815.86 149.56,-743.81 137.88,-705.59"/>
<polygon fill="#f906f9" stroke="black" points="141.14,-704.27 134.86,-695.74 134.44,-706.32 141.14,-704.27"/>
</g>
<!-- pydantic&#45;&gt;hexaqueue_workflow_domain_models -->
<g id="edge42" class="edge">
<title>pydantic&#45;&gt;hexaqueue_workflow_domain_models</title><style>.edge>path:hover{stroke-width:8}</style>
<path fill="none" stroke="black" d="M206.5,-971.98C201.88,-950.33 217.34,-935.88 238.25,-926.3"/>
<polygon fill="#f906f9" stroke="black" points="239.59,-929.53 247.5,-922.48 236.92,-923.06 239.59,-929.53"/>
</g>
</g>
</svg>
