<?xml version="1.0" encoding="UTF-8" standalone="no"?>
<!DOCTYPE svg PUBLIC "-//W3C//DTD SVG 1.1//EN"
 "http://www.w3.org/Graphics/SVG/1.1/DTD/svg11.dtd">
<!-- Generated by graphviz version 2.43.0 (0)
 -->
<!-- Title: G Pages: 1 -->
<svg width="505pt" height="745pt"
 viewBox="0.00 0.00 504.65 744.97" xmlns="http://www.w3.org/2000/svg" xmlns:xlink="http://www.w3.org/1999/xlink">
<g id="graph0" class="graph" transform="scale(1 1) rotate(0) translate(4 740.97)">
<title>G</title><style>.edge>path:hover{stroke-width:8}</style>
<polygon fill="white" stroke="transparent" points="-4,4 -4,-740.97 500.65,-740.97 500.65,4 -4,4"/>
<!-- hexaqueue_core -->
<g id="node1" class="node">
<title>hexaqueue_core</title><style>.edge>path:hover{stroke-width:8}</style>
<polygon fill="blue" stroke="black" points="252.99,-496.98 249.99,-500.98 228.99,-500.98 225.99,-496.98 155.99,-496.98 155.99,-460.98 252.99,-460.98 252.99,-496.98"/>
<text text-anchor="middle" x="204.49" y="-476.48" font-family="Helvetica,sans-Serif" font-size="10.00" fill="white">hexaqueue_core</text>
</g>
<!-- hexaqueue_worker_adapters_local -->
<g id="node4" class="node">
<title>hexaqueue_worker_adapters_local</title><style>.edge>path:hover{stroke-width:8}</style>
<polygon fill="blue" stroke="black" points="327.99,-193.49 216.99,-193.49 216.99,-152.49 327.99,-152.49 327.99,-193.49"/>
<text text-anchor="middle" x="272.49" y="-181.49" font-family="Helvetica,sans-Serif" font-size="10.00" fill="white">hexaqueue_worker.</text>
<text text-anchor="middle" x="272.49" y="-170.49" font-family="Helvetica,sans-Serif" font-size="10.00" fill="white">adapters.</text>
<text text-anchor="middle" x="272.49" y="-159.49" font-family="Helvetica,sans-Serif" font-size="10.00" fill="white">local</text>
</g>
<!-- hexaqueue_core&#45;&gt;hexaqueue_worker_adapters_local -->
<g id="edge1" class="edge">
<title>hexaqueue_core&#45;&gt;hexaqueue_worker_adapters_local</title><style>.edge>path:hover{stroke-width:8}</style>
<path fill="none" stroke="black" d="M150.49,-291.98C137.69,-251.25 178.46,-218.83 216.26,-198.36"/>
<polygon fill="blue" stroke="black" points="218.01,-201.4 225.26,-193.67 214.77,-195.19 218.01,-201.4"/>
</g>
<!-- hexaqueue_worker_infra_bootstrap -->
<g id="node8" class="node">
<title>hexaqueue_worker_infra_bootstrap</title><style>.edge>path:hover{stroke-width:8}</style>
<ellipse fill="#28a328" stroke="black" cx="78.49" cy="-172.99" rx="78.48" ry="28.98"/>
<text text-anchor="middle" x="78.49" y="-181.49" font-family="Helvetica,sans-Serif" font-size="10.00" fill="#ffffff">hexaqueue_worker.</text>
<text text-anchor="middle" x="78.49" y="-170.49" font-family="Helvetica,sans-Serif" font-size="10.00" fill="#ffffff">infra.</text>
<text text-anchor="middle" x="78.49" y="-159.49" font-family="Helvetica,sans-Serif" font-size="10.00" fill="#ffffff">bootstrap</text>
</g>
<!-- hexaqueue_core&#45;&gt;hexaqueue_worker_infra_bootstrap -->
<g id="edge2" class="edge">
<title>hexaqueue_core&#45;&gt;hexaqueue_worker_infra_bootstrap</title><style>.edge>path:hover{stroke-width:8}</style>
<path fill="none" stroke="black" d="M172.81,-460.97C160.88,-452.1 150.2,-439.96 150.49,-424.98"/>
<path fill="none" stroke="black" d="M150.49,-423.98C151.6,-366.22 165.26,-349.84 150.49,-293.98"/>
<path fill="none" stroke="black" d="M150.49,-291.98C141.42,-261.82 122.73,-231.58 106.66,-209.26"/>
<polygon fill="blue" stroke="black" points="109.41,-207.09 100.66,-201.11 103.77,-211.24 109.41,-207.09"/>
</g>
<!-- hexaqueue_worker_ports_worker -->
<g id="node10" class="node">
<title>hexaqueue_worker_ports_worker</title><style>.edge>path:hover{stroke-width:8}</style>
<polygon fill="blue" stroke="black" points="327.99,-387.98 216.99,-387.98 216.99,-346.98 327.99,-346.98 327.99,-387.98"/>
<text text-anchor="middle" x="272.49" y="-375.98" font-family="Helvetica,sans-Serif" font-size="10.00" fill="white">hexaqueue_worker.</text>
<text text-anchor="middle" x="272.49" y="-364.98" font-family="Helvetica,sans-Serif" font-size="10.00" fill="white">ports.</text>
<text text-anchor="middle" x="272.49" y="-353.98" font-family="Helvetica,sans-Serif" font-size="10.00" fill="white">worker</text>
</g>
<!-- hexaqueue_core&#45;&gt;hexaqueue_worker_ports_worker -->
<g id="edge3" class="edge">
<title>hexaqueue_core&#45;&gt;hexaqueue_worker_ports_worker</title><style>.edge>path:hover{stroke-width:8}</style>
<path fill="none" stroke="black" d="M150.49,-423.98C151.03,-395.89 178.21,-381.95 206.77,-375.06"/>
<polygon fill="blue" stroke="black" points="207.84,-378.41 216.89,-372.91 206.38,-371.57 207.84,-378.41"/>
</g>
<!-- hexaqueue_worker -->
<g id="node2" class="node">
<title>hexaqueue_worker</title><style>.edge>path:hover{stroke-width:8}</style>
<polygon fill="blue" stroke="black" points="242.99,-36 133.99,-36 133.99,0 242.99,0 242.99,-36"/>
<text text-anchor="middle" x="188.49" y="-15.5" font-family="Helvetica,sans-Serif" font-size="10.00" fill="white">hexaqueue_worker</text>
</g>
<!-- hexaqueue_worker_adapters -->
<g id="node3" class="node">
<title>hexaqueue_worker_adapters</title><style>.edge>path:hover{stroke-width:8}</style>
<polygon fill="blue" stroke="black" points="327.99,-108 216.99,-108 216.99,-72 327.99,-72 327.99,-108"/>
<text text-anchor="middle" x="272.49" y="-93" font-family="Helvetica,sans-Serif" font-size="10.00" fill="white">hexaqueue_worker.</text>
<text text-anchor="middle" x="272.49" y="-82" font-family="Helvetica,sans-Serif" font-size="10.00" fill="white">adapters</text>
</g>
<!-- hexaqueue_worker_adapters&#45;&gt;hexaqueue_worker -->
<g id="edge4" class="edge">
<title>hexaqueue_worker_adapters&#45;&gt;hexaqueue_worker</title><style>.edge>path:hover{stroke-width:8}</style>
<path fill="none" stroke="black" d="M251.72,-71.7C241.25,-62.97 228.38,-52.24 216.99,-42.75"/>
<polygon fill="blue" stroke="black" points="218.94,-39.82 209.01,-36.1 214.46,-45.19 218.94,-39.82"/>
</g>
<!-- hexaqueue_worker_adapters_local&#45;&gt;hexaqueue_worker -->
<g id="edge5" class="edge">
<title>hexaqueue_worker_adapters_local&#45;&gt;hexaqueue_worker</title><style>.edge>path:hover{stroke-width:8}</style>
<path fill="none" stroke="black" d="M237.73,-152.33C217.51,-138.36 194.79,-117.4 188.49,-91"/>
</g>
<!-- hexaqueue_worker_adapters_local&#45;&gt;hexaqueue_worker_adapters -->
<g id="edge6" class="edge">
<title>hexaqueue_worker_adapters_local&#45;&gt;hexaqueue_worker_adapters</title><style>.edge>path:hover{stroke-width:8}</style>
<path fill="none" stroke="black" d="M272.49,-152.39C272.49,-142.17 272.49,-129.51 272.49,-118.34"/>
<polygon fill="blue" stroke="black" points="275.99,-118.23 272.49,-108.23 268.99,-118.23 275.99,-118.23"/>
</g>
<!-- hexaqueue_worker_domain -->
<g id="node5" class="node">
<title>hexaqueue_worker_domain</title><style>.edge>path:hover{stroke-width:8}</style>
<polygon fill="blue" stroke="black" points="461.99,-496.98 350.99,-496.98 350.99,-460.98 461.99,-460.98 461.99,-496.98"/>
<text text-anchor="middle" x="406.49" y="-481.98" font-family="Helvetica,sans-Serif" font-size="10.00" fill="white">hexaqueue_worker.</text>
<text text-anchor="middle" x="406.49" y="-470.98" font-family="Helvetica,sans-Serif" font-size="10.00" fill="white">domain</text>
</g>
<!-- hexaqueue_worker_domain&#45;&gt;hexaqueue_worker -->
<g id="edge7" class="edge">
<title>hexaqueue_worker_domain&#45;&gt;hexaqueue_worker</title><style>.edge>path:hover{stroke-width:8}</style>
<path fill="none" stroke="black" d="M417.49,-237.98C404.08,-212.9 421.49,-202.15 417.49,-173.99"/>
<path fill="none" stroke="black" d="M417.49,-171.99C406.51,-94.77 316.54,-53.84 252.71,-34.31"/>
<polygon fill="blue" stroke="black" points="253.68,-30.95 243.1,-31.47 251.69,-37.66 253.68,-30.95"/>
</g>
<!-- hexaqueue_worker_domain&#45;&gt;hexaqueue_worker_adapters_local -->
<g id="edge8" class="edge">
<title>hexaqueue_worker_domain&#45;&gt;hexaqueue_worker_adapters_local</title><style>.edge>path:hover{stroke-width:8}</style>
<path fill="none" stroke="black" d="M417.49,-423.98C389.09,-346.82 450.87,-314.12 417.49,-238.98"/>
<path fill="none" stroke="black" d="M417.49,-237.98C401.8,-208.64 368.59,-192.74 337.9,-184.13"/>
<polygon fill="blue" stroke="black" points="338.61,-180.7 328.05,-181.58 336.86,-187.48 338.61,-180.7"/>
</g>
<!-- hexaqueue_worker_domain&#45;&gt;hexaqueue_worker_ports_worker -->
<g id="edge9" class="edge">
<title>hexaqueue_worker_domain&#45;&gt;hexaqueue_worker_ports_worker</title><style>.edge>path:hover{stroke-width:8}</style>
<path fill="none" stroke="black" d="M414.75,-460.92C418.72,-450.35 421.77,-436.62 417.49,-424.98"/>
<path fill="none" stroke="black" d="M417.49,-423.98C405.84,-392.35 370.97,-378.38 338.35,-372.36"/>
<polygon fill="blue" stroke="black" points="338.75,-368.88 328.32,-370.74 337.63,-375.79 338.75,-368.88"/>
</g>
<!-- hexaqueue_worker_domain_models -->
<g id="node6" class="node">
<title>hexaqueue_worker_domain_models</title><style>.edge>path:hover{stroke-width:8}</style>
<ellipse fill="#19e619" stroke="black" cx="406.49" cy="-561.97" rx="78.48" ry="28.98"/>
<text text-anchor="middle" x="406.49" y="-570.47" font-family="Helvetica,sans-Serif" font-size="10.00" fill="#000000">hexaqueue_worker.</text>
<text text-anchor="middle" x="406.49" y="-559.47" font-family="Helvetica,sans-Serif" font-size="10.00" fill="#000000">domain.</text>
<text text-anchor="middle" x="406.49" y="-548.47" font-family="Helvetica,sans-Serif" font-size="10.00" fill="#000000">models</text>
</g>
<!-- hexaqueue_worker_domain_models&#45;&gt;hexaqueue_worker -->
<g id="edge10" class="edge">
<title>hexaqueue_worker_domain_models&#45;&gt;hexaqueue_worker</title><style>.edge>path:hover{stroke-width:8}</style>
<path fill="none" stroke="black" d="M441.64,-535.85C453.44,-525.32 465.19,-512.03 471.49,-496.98 527.71,-362.74 479.22,-305.8 417.49,-173.99"/>
</g>
<!-- hexaqueue_worker_domain_models&#45;&gt;hexaqueue_worker_adapters_local -->
<g id="edge11" class="edge">
<title>hexaqueue_worker_domain_models&#45;&gt;hexaqueue_worker_adapters_local</title><style>.edge>path:hover{stroke-width:8}</style>
<path fill="none" stroke="black" d="M356.49,-423.98C346.44,-367.08 347.95,-351.13 356.49,-293.98"/>
</g>
<!-- hexaqueue_worker_domain_models&#45;&gt;hexaqueue_worker_domain -->
<g id="edge12" class="edge">
<title>hexaqueue_worker_domain_models&#45;&gt;hexaqueue_worker_domain</title><style>.edge>path:hover{stroke-width:8}</style>
<path fill="none" stroke="black" d="M406.49,-532.65C406.49,-524.4 406.49,-515.41 406.49,-507.23"/>
<polygon fill="#19e619" stroke="black" points="409.99,-507.08 406.49,-497.08 402.99,-507.08 409.99,-507.08"/>
</g>
<!-- hexaqueue_worker_domain_models&#45;&gt;hexaqueue_worker_ports_worker -->
<g id="edge13" class="edge">
<title>hexaqueue_worker_domain_models&#45;&gt;hexaqueue_worker_ports_worker</title><style>.edge>path:hover{stroke-width:8}</style>
<path fill="none" stroke="black" d="M371.87,-535.75C360.25,-525.21 348.68,-511.93 342.49,-496.98 336.37,-482.2 339.54,-476.71 342.49,-460.98 345.65,-444.11 357.15,-442.14 356.49,-424.98"/>
<path fill="none" stroke="black" d="M356.49,-423.98C354.28,-411.49 346.57,-401.62 336.66,-393.88"/>
<polygon fill="#19e619" stroke="black" points="338.52,-390.92 328.3,-388.13 334.55,-396.68 338.52,-390.92"/>
</g>
<!-- hexaqueue_worker_infra -->
<g id="node7" class="node">
<title>hexaqueue_worker_infra</title><style>.edge>path:hover{stroke-width:8}</style>
<polygon fill="blue" stroke="black" points="159.99,-108 48.99,-108 48.99,-72 159.99,-72 159.99,-108"/>
<text text-anchor="middle" x="104.49" y="-93" font-family="Helvetica,sans-Serif" font-size="10.00" fill="white">hexaqueue_worker.</text>
<text text-anchor="middle" x="104.49" y="-82" font-family="Helvetica,sans-Serif" font-size="10.00" fill="white">infra</text>
</g>
<!-- hexaqueue_worker_infra&#45;&gt;hexaqueue_worker -->
<g id="edge14" class="edge">
<title>hexaqueue_worker_infra&#45;&gt;hexaqueue_worker</title><style>.edge>path:hover{stroke-width:8}</style>
<path fill="none" stroke="black" d="M125.25,-71.7C135.73,-62.97 148.6,-52.24 159.99,-42.75"/>
<polygon fill="blue" stroke="black" points="162.52,-45.19 167.96,-36.1 158.04,-39.82 162.52,-45.19"/>
</g>
<!-- hexaqueue_worker_infra_bootstrap&#45;&gt;hexaqueue_worker -->
<g id="edge15" class="edge">
<title>hexaqueue_worker_infra_bootstrap&#45;&gt;hexaqueue_worker</title><style>.edge>path:hover{stroke-width:8}</style>
<path fill="none" stroke="black" d="M54.71,-145.22C38.9,-124.03 23.7,-94.38 39.49,-72 58.63,-44.88 92.93,-31.55 123.8,-25.04"/>
<polygon fill="#28a328" stroke="black" points="124.51,-28.47 133.68,-23.16 123.2,-21.59 124.51,-28.47"/>
</g>
<!-- hexaqueue_worker_infra_bootstrap&#45;&gt;hexaqueue_worker_infra -->
<g id="edge16" class="edge">
<title>hexaqueue_worker_infra_bootstrap&#45;&gt;hexaqueue_worker_infra</title><style>.edge>path:hover{stroke-width:8}</style>
<path fill="none" stroke="black" d="M87.44,-144.12C90.15,-135.66 93.13,-126.39 95.83,-117.99"/>
<polygon fill="#28a328" stroke="black" points="99.21,-118.88 98.94,-108.29 92.55,-116.74 99.21,-118.88"/>
</g>
<!-- hexaqueue_worker_ports -->
<g id="node9" class="node">
<title>hexaqueue_worker_ports</title><style>.edge>path:hover{stroke-width:8}</style>
<polygon fill="blue" stroke="black" points="327.99,-310.98 216.99,-310.98 216.99,-274.98 327.99,-274.98 327.99,-310.98"/>
<text text-anchor="middle" x="272.49" y="-295.98" font-family="Helvetica,sans-Serif" font-size="10.00" fill="white">hexaqueue_worker.</text>
<text text-anchor="middle" x="272.49" y="-284.98" font-family="Helvetica,sans-Serif" font-size="10.00" fill="white">ports</text>
</g>
<!-- hexaqueue_worker_ports&#45;&gt;hexaqueue_worker -->
<g id="edge17" class="edge">
<title>hexaqueue_worker_ports&#45;&gt;hexaqueue_worker</title><style>.edge>path:hover{stroke-width:8}</style>
<path fill="none" stroke="black" d="M219.61,-274.97C204.93,-266.9 192.02,-255.33 188.49,-238.98"/>
<path fill="none" stroke="black" d="M188.49,-237.98C182.49,-210.18 181.1,-201.45 188.49,-173.99"/>
</g>
<!-- hexaqueue_worker_ports&#45;&gt;hexaqueue_worker_adapters_local -->
<g id="edge18" class="edge">
<title>hexaqueue_worker_ports&#45;&gt;hexaqueue_worker_adapters_local</title><style>.edge>path:hover{stroke-width:8}</style>
<path fill="none" stroke="black" d="M188.49,-237.98C184.95,-221.58 194.68,-208.72 208.64,-198.98"/>
<polygon fill="blue" stroke="black" points="210.65,-201.85 217.29,-193.6 206.95,-195.91 210.65,-201.85"/>
</g>
<!-- hexaqueue_worker_ports_worker&#45;&gt;hexaqueue_worker -->
<g id="edge19" class="edge">
<title>hexaqueue_worker_ports_worker&#45;&gt;hexaqueue_worker</title><style>.edge>path:hover{stroke-width:8}</style>
<path fill="none" stroke="black" d="M244.42,-346.91C231.94,-337.18 217.77,-324.6 207.49,-310.98 186.27,-282.89 181.99,-273.37 174.49,-238.98 168.19,-210.11 180.81,-202.52 188.49,-173.99"/>
<path fill="none" stroke="black" d="M188.49,-171.99C190.4,-136.05 196.84,-126.01 188.49,-91"/>
<path fill="none" stroke="black" d="M188.49,-89C185.21,-75.24 184.91,-59.52 185.56,-46.47"/>
<polygon fill="blue" stroke="black" points="189.07,-46.46 186.29,-36.23 182.09,-45.96 189.07,-46.46"/>
</g>
<!-- hexaqueue_worker_ports_worker&#45;&gt;hexaqueue_worker_adapters_local -->
<g id="edge20" class="edge">
<title>hexaqueue_worker_ports_worker&#45;&gt;hexaqueue_worker_adapters_local</title><style>.edge>path:hover{stroke-width:8}</style>
<path fill="none" stroke="black" d="M311.62,-346.96C330.53,-334.82 350.42,-317.09 356.49,-293.98"/>
<path fill="none" stroke="black" d="M356.49,-291.98C365.95,-255.94 336.32,-222.1 309.68,-199.98"/>
<polygon fill="blue" stroke="black" points="311.55,-197 301.55,-193.5 307.19,-202.47 311.55,-197"/>
</g>
<!-- hexaqueue_worker_ports_worker&#45;&gt;hexaqueue_worker_ports -->
<g id="edge21" class="edge">
<title>hexaqueue_worker_ports_worker&#45;&gt;hexaqueue_worker_ports</title><style>.edge>path:hover{stroke-width:8}</style>
<path fill="none" stroke="black" d="M272.49,-346.67C272.49,-338.89 272.49,-329.82 272.49,-321.43"/>
<polygon fill="blue" stroke="black" points="275.99,-321.3 272.49,-311.3 268.99,-321.3 275.99,-321.3"/>
</g>
<!-- pydantic -->
<g id="node11" class="node">
<title>pydantic</title><style>.edge>path:hover{stroke-width:8}</style>
<polygon fill="#0606f9" stroke="black" points="435.99,-736.97 432.99,-740.97 411.99,-740.97 408.99,-736.97 376.99,-736.97 376.99,-700.97 435.99,-700.97 435.99,-736.97"/>
<text text-anchor="middle" x="406.49" y="-716.47" font-family="Helvetica,sans-Serif" font-size="10.00" fill="#ffffff">pydantic</text>
</g>
<!-- pydantic&#45;&gt;hexaqueue_core -->
<g id="edge22" class="edge">
<title>pydantic&#45;&gt;hexaqueue_core</title><style>.edge>path:hover{stroke-width:8}</style>
<path fill="none" stroke="black" d="M409.8,-700.81C412.63,-682.26 415.04,-652.12 406.49,-627.97"/>
<path fill="none" stroke="black" d="M406.49,-626.97C389.91,-588.54 354.49,-613.9 319.49,-590.97 282.37,-566.65 246.75,-529.4 225.24,-504.87"/>
<polygon fill="#0606f9" stroke="black" points="227.69,-502.35 218.51,-497.08 222.4,-506.93 227.69,-502.35"/>
</g>
<!-- pydantic&#45;&gt;hexaqueue_worker_domain_models -->
<g id="edge23" class="edge">
<title>pydantic&#45;&gt;hexaqueue_worker_domain_models</title><style>.edge>path:hover{stroke-width:8}</style>
<path fill="none" stroke="black" d="M406.49,-626.97C403.64,-618.92 402.5,-609.95 402.3,-601.33"/>
<polygon fill="#0606f9" stroke="black" points="405.81,-601.12 402.47,-591.07 398.81,-601.01 405.81,-601.12"/>
</g>
</g>
</svg>
